<?xml version="1.0" encoding="UTF-8" standalone="no"?>
<!-- Created with Inkscape (http://www.inkscape.org/) -->

<svg
   xmlns:dc="http://purl.org/dc/elements/1.1/"
   xmlns:cc="http://creativecommons.org/ns#"
   xmlns:rdf="http://www.w3.org/1999/02/22-rdf-syntax-ns#"
   xmlns:svg="http://www.w3.org/2000/svg"
   xmlns="http://www.w3.org/2000/svg"
   xmlns:sodipodi="http://sodipodi.sourceforge.net/DTD/sodipodi-0.dtd"
   xmlns:inkscape="http://www.inkscape.org/namespaces/inkscape"
   width="744.09448819"
   height="1052.3622047"
   id="svg5588"
   version="1.1"
   inkscape:version="0.48.0 r9654"
   sodipodi:docname="New document 19">
  <defs
     id="defs5590" />
  <sodipodi:namedview
     id="base"
     pagecolor="#ffffff"
     bordercolor="#666666"
     borderopacity="1.0"
     inkscape:pageopacity="0.0"
     inkscape:pageshadow="2"
     inkscape:zoom="0.35"
     inkscape:cx="375"
     inkscape:cy="520"
     inkscape:document-units="px"
     inkscape:current-layer="layer1"
     showgrid="false"
     inkscape:window-width="435"
     inkscape:window-height="454"
     inkscape:window-x="257"
     inkscape:window-y="203"
     inkscape:window-maximized="0" />
  <metadata
     id="metadata5593">
    <rdf:RDF>
      <cc:Work
         rdf:about="">
        <dc:format>image/svg+xml</dc:format>
        <dc:type
           rdf:resource="http://purl.org/dc/dcmitype/StillImage" />
        <dc:title></dc:title>
      </cc:Work>
    </rdf:RDF>
  </metadata>
  <g
     inkscape:label="Layer 1"
     inkscape:groupmode="layer"
     id="layer1">
    <g
       id="g4903"
       transform="matrix(0.89393936,0,0,-0.89393936,247.92521,662.58318)">
      <g
         transform="translate(108.6436,143.6367)"
         id="g3090">
        <path
           inkscape:connector-curvature="0"
           id="path3092"
           style="fill:#ffffff;fill-opacity:1;fill-rule:nonzero;stroke:none"
           d="m 0,0 c 0,-4.296 -3.799,-7.778 -8.485,-7.778 -4.687,0 -8.486,3.482 -8.486,7.778 0,4.296 3.799,7.778 8.486,7.778 C -3.799,7.778 0,4.296 0,0" />
      </g>
      <g
         transform="translate(108.6436,143.6367)"
         id="g3094">
        <path
           inkscape:connector-curvature="0"
           id="path3096"
           style="fill:none;stroke:#1a1a00;stroke-width:1.3983053;stroke-linecap:butt;stroke-linejoin:round;stroke-miterlimit:4;stroke-opacity:1;stroke-dasharray:none"
           d="m 0,0 c 0,-4.296 -3.799,-7.778 -8.485,-7.778 -4.687,0 -8.486,3.482 -8.486,7.778 0,4.296 3.799,7.778 8.486,7.778 C -3.799,7.778 0,4.296 0,0 z" />
      </g>
      <g
         transform="translate(124.0298,143.9785)"
         id="g3098">
        <path
           inkscape:connector-curvature="0"
           id="path3100"
           style="fill:#ffffff;fill-opacity:1;fill-rule:nonzero;stroke:none"
           d="m 0,0 c 0,-4.106 -3.444,-7.436 -7.693,-7.436 -4.249,0 -7.693,3.33 -7.693,7.436 0,4.107 3.444,7.437 7.693,7.437 C -3.444,7.437 0,4.107 0,0" />
      </g>
      <g
         transform="translate(124.0298,143.9785)"
         id="g3102">
        <path
           inkscape:connector-curvature="0"
           id="path3104"
           style="fill:none;stroke:#1a1a00;stroke-width:1.3983053;stroke-linecap:butt;stroke-linejoin:round;stroke-miterlimit:4;stroke-opacity:1;stroke-dasharray:none"
           d="m 0,0 c 0,-4.106 -3.444,-7.436 -7.693,-7.436 -4.249,0 -7.693,3.33 -7.693,7.436 0,4.107 3.444,7.437 7.693,7.437 C -3.444,7.437 0,4.107 0,0 z" />
      </g>
      <g
         transform="translate(107.8628,147.2314)"
         id="g3106">
        <path
           inkscape:connector-curvature="0"
           id="path3108"
           style="fill:#000000;fill-opacity:1;fill-rule:nonzero;stroke:none"
           d="m 0,0 -16.657,3.249 0.856,4.39 L 1.248,1.5 0,0 z" />
      </g>
      <g
         transform="translate(107.8628,147.2314)"
         id="g3110">
        <path
           inkscape:connector-curvature="0"
           id="path3112"
           style="fill:none;stroke:#1a1a00;stroke-width:1.3983053;stroke-linecap:butt;stroke-linejoin:round;stroke-miterlimit:4;stroke-opacity:1;stroke-dasharray:none"
           d="m 0,0 -16.657,3.249 0.856,4.39 L 1.248,1.5 0,0 z" />
      </g>
      <g
         transform="translate(108.1987,146.6172)"
         id="g3114">
        <path
           inkscape:connector-curvature="0"
           id="path3116"
           style="fill:#000000;fill-opacity:1;fill-rule:nonzero;stroke:none"
           d="M 0,0 14.698,4.992 13.383,8.866 -1.315,1.206 0,0 z" />
      </g>
      <g
         transform="translate(108.1987,146.6172)"
         id="g3118">
        <path
           inkscape:connector-curvature="0"
           id="path3120"
           style="fill:none;stroke:#1a1a00;stroke-width:1.3983053;stroke-linecap:butt;stroke-linejoin:round;stroke-miterlimit:4;stroke-opacity:1;stroke-dasharray:none"
           d="M 0,0 14.698,4.992 13.383,8.866 -1.315,1.206 0,0 z" />
      </g>
      <g
         transform="translate(106.8462,143.8105)"
         id="g3122">
        <path
           inkscape:connector-curvature="0"
           id="path3124"
           style="fill:#000000;fill-opacity:1;fill-rule:nonzero;stroke:none"
           d="m 0,0 c 0,-1.354 -1.021,-2.45 -2.282,-2.45 -1.26,0 -2.281,1.096 -2.281,2.45 0,1.354 1.021,2.451 2.281,2.451 C -1.021,2.451 0,1.354 0,0" />
      </g>
      <g
         transform="translate(106.8462,143.8105)"
         id="g3126">
        <path
           inkscape:connector-curvature="0"
           id="path3128"
           style="fill:none;stroke:#000000;stroke-width:1.3983053;stroke-linecap:butt;stroke-linejoin:round;stroke-miterlimit:4;stroke-opacity:1;stroke-dasharray:none"
           d="m 0,0 c 0,-1.354 -1.021,-2.45 -2.282,-2.45 -1.26,0 -2.281,1.096 -2.281,2.45 0,1.354 1.021,2.451 2.281,2.451 C -1.021,2.451 0,1.354 0,0 z" />
      </g>
      <g
         transform="translate(115.4746,143.8105)"
         id="g3130">
        <path
           inkscape:connector-curvature="0"
           id="path3132"
           style="fill:#000000;fill-opacity:1;fill-rule:nonzero;stroke:none"
           d="m 0,0 c 0,-1.354 -1.021,-2.45 -2.282,-2.45 -1.26,0 -2.281,1.096 -2.281,2.45 0,1.354 1.021,2.451 2.281,2.451 C -1.021,2.451 0,1.354 0,0" />
      </g>
      <g
         transform="translate(115.4746,143.8105)"
         id="g3134">
        <path
           inkscape:connector-curvature="0"
           id="path3136"
           style="fill:none;stroke:#000000;stroke-width:1.3983053;stroke-linecap:butt;stroke-linejoin:round;stroke-miterlimit:4;stroke-opacity:1;stroke-dasharray:none"
           d="m 0,0 c 0,-1.354 -1.021,-2.45 -2.282,-2.45 -1.26,0 -2.281,1.096 -2.281,2.45 0,1.354 1.021,2.451 2.281,2.451 C -1.021,2.451 0,1.354 0,0 z" />
      </g>
    </g>
    <g
       id="g5050"
       transform="matrix(0.88694419,0,0,-0.88694419,237.78465,661.33639)">
      <g
         transform="translate(190.667,144.1738)"
         id="g3748">
        <path
           inkscape:connector-curvature="0"
           id="path3750"
           style="fill:#37673f;fill-opacity:1;fill-rule:nonzero;stroke:none"
           d="m 0,0 c 0,-3.5 -3.799,-6.337 -8.485,-6.337 -4.687,0 -8.486,2.837 -8.486,6.337 0,3.501 3.799,6.338 8.486,6.338 C -3.799,6.338 0,3.501 0,0" />
      </g>
      <g
         transform="translate(190.667,144.1738)"
         id="g3752">
        <path
           inkscape:connector-curvature="0"
           id="path3754"
           style="fill:none;stroke:#1a1a00;stroke-width:1.40933335;stroke-linecap:butt;stroke-linejoin:round;stroke-miterlimit:4;stroke-opacity:1;stroke-dasharray:none"
           d="m 0,0 c 0,-3.5 -3.799,-6.337 -8.485,-6.337 -4.687,0 -8.486,2.837 -8.486,6.337 0,3.501 3.799,6.338 8.486,6.338 C -3.799,6.338 0,3.501 0,0 z" />
      </g>
      <g
         transform="translate(206.0532,144.8691)"
         id="g3756">
        <path
           inkscape:connector-curvature="0"
           id="path3758"
           style="fill:#37673f;fill-opacity:1;fill-rule:nonzero;stroke:none"
           d="m 0,0 c 0,-3.117 -3.444,-5.643 -7.693,-5.643 -4.249,0 -7.693,2.526 -7.693,5.643 0,3.117 3.444,5.643 7.693,5.643 C -3.444,5.643 0,3.117 0,0" />
      </g>
      <g
         transform="translate(206.0532,144.8691)"
         id="g3760">
        <path
           inkscape:connector-curvature="0"
           id="path3762"
           style="fill:none;stroke:#1a1a00;stroke-width:1.40933335;stroke-linecap:butt;stroke-linejoin:round;stroke-miterlimit:4;stroke-opacity:1;stroke-dasharray:none"
           d="m 0,0 c 0,-3.117 -3.444,-5.643 -7.693,-5.643 -4.249,0 -7.693,2.526 -7.693,5.643 0,3.117 3.444,5.643 7.693,5.643 C -3.444,5.643 0,3.117 0,0 z" />
      </g>
      <g
         transform="translate(189.8862,146.3281)"
         id="g3764">
        <path
           inkscape:connector-curvature="0"
           id="path3766"
           style="fill:#000000;fill-opacity:1;fill-rule:nonzero;stroke:none"
           d="m 0,0 -16.657,3.249 0.856,4.39 L 1.248,1.5 0,0 z" />
      </g>
      <g
         transform="translate(189.8862,146.3281)"
         id="g3768">
        <path
           inkscape:connector-curvature="0"
           id="path3770"
           style="fill:none;stroke:#1a1a00;stroke-width:1.40933335;stroke-linecap:butt;stroke-linejoin:round;stroke-miterlimit:4;stroke-opacity:1;stroke-dasharray:none"
           d="m 0,0 -16.657,3.249 0.856,4.39 L 1.248,1.5 0,0 z" />
      </g>
      <g
         transform="translate(190.2222,145.7139)"
         id="g3772">
        <path
           inkscape:connector-curvature="0"
           id="path3774"
           style="fill:#000000;fill-opacity:1;fill-rule:nonzero;stroke:none"
           d="M 0,0 14.698,4.992 13.383,8.866 -1.315,1.206 0,0 z" />
      </g>
      <g
         transform="translate(190.2222,145.7139)"
         id="g3776">
        <path
           inkscape:connector-curvature="0"
           id="path3778"
           style="fill:none;stroke:#1a1a00;stroke-width:1.40933335;stroke-linecap:butt;stroke-linejoin:round;stroke-miterlimit:4;stroke-opacity:1;stroke-dasharray:none"
           d="M 0,0 14.698,4.992 13.383,8.866 -1.315,1.206 0,0 z" />
      </g>
      <g
         transform="translate(190.9604,143.5186)"
         id="g3780">
        <path
           inkscape:connector-curvature="0"
           id="path3782"
           style="fill:none;stroke:#1a1a00;stroke-width:1.40933335;stroke-linecap:butt;stroke-linejoin:round;stroke-miterlimit:4;stroke-opacity:1;stroke-dasharray:none"
           d="M 0,0 -17.044,1.021" />
      </g>
      <g
         transform="translate(190.9604,143.5186)"
         id="g3784">
        <path
           inkscape:connector-curvature="0"
           id="path3786"
           style="fill:none;stroke:#1a1a00;stroke-width:1.40933335;stroke-linecap:butt;stroke-linejoin:round;stroke-miterlimit:4;stroke-opacity:1;stroke-dasharray:none"
           d="M 0,0 14.937,3.328" />
      </g>
    </g>
  </g>
</svg>
