<?xml version="1.0" encoding="UTF-8" standalone="no"?>
<!-- Created with Inkscape (http://www.inkscape.org/) -->

<svg
   xmlns:dc="http://purl.org/dc/elements/1.1/"
   xmlns:cc="http://creativecommons.org/ns#"
   xmlns:rdf="http://www.w3.org/1999/02/22-rdf-syntax-ns#"
   xmlns:svg="http://www.w3.org/2000/svg"
   xmlns="http://www.w3.org/2000/svg"
   version="1.1"
   width="744.09448"
   height="1052.3622"
   id="svg5917">
  <defs
     id="defs5919" />
  <metadata
     id="metadata5922">
    <rdf:RDF>
      <cc:Work
         rdf:about="">
        <dc:format>image/svg+xml</dc:format>
        <dc:type
           rdf:resource="http://purl.org/dc/dcmitype/StillImage" />
        <dc:title></dc:title>
      </cc:Work>
    </rdf:RDF>
  </metadata>
  <g
     id="layer1">
    <g
       transform="matrix(0.78249585,0.15376027,0.15376027,-0.78249585,85.570516,379.37252)"
       id="g5903">
      <g
         transform="translate(328.3784,144.6133)"
         id="g3936">
        <path
           d="m 0,0 0,0 c 1.648,0.295 3.141,-0.347 3.335,-1.435 l 1.83,-10.232 c 0.194,-1.086 -0.983,-2.207 -2.631,-2.502 -1.647,-0.295 -3.14,0.349 -3.335,1.435 l -1.83,10.232 C -2.825,-1.414 -1.647,-0.294 0,0"
           id="path3938"
           style="fill:#c8ab37;fill-opacity:1;fill-rule:nonzero;stroke:none" />
      </g>
      <g
         transform="translate(328.3784,144.6133)"
         id="g3940">
        <path
           d="m 0,0 0,0 c 1.648,0.295 3.141,-0.347 3.335,-1.435 l 1.83,-10.232 c 0.194,-1.086 -0.983,-2.207 -2.631,-2.502 -1.647,-0.295 -3.14,0.349 -3.335,1.435 l -1.83,10.232 C -2.825,-1.414 -1.647,-0.294 0,0 z"
           id="path3942"
           style="fill:none;stroke:#222b00;stroke-width:1.56747735;stroke-linecap:butt;stroke-linejoin:round;stroke-miterlimit:4;stroke-opacity:1;stroke-dasharray:none" />
      </g>
      <g
         transform="translate(338.6558,177.7002)"
         id="g3944">
        <path
           d="m 0,0 c 2.397,0.678 4.596,1.213 6.62,1.619 0.967,0.194 2.395,-4.429 3.285,-4.292 0.985,0.151 1.422,5.056 2.319,5.14 15.309,1.447 18.371,-6.488 26.558,-13.821 1.543,-1.38 4.141,-0.035 5.166,-3.043 1.024,-3.004 -0.941,-3.705 -0.941,-3.705 0,0 -26.432,-6.188 -38.344,-12.889 -12.445,-7.354 -25.675,-8.593 -27.607,-6.073 -1.668,2.173 -1.96,4.824 1.554,5.628 3.47,0.795 -2.177,16.499 10.425,26.206 1.479,1.138 7.856,-9.188 9.881,-8.248 C 0.61,-12.691 -2.135,-0.604 0,0"
           id="path3946"
           style="fill:#8a916f;fill-opacity:1;fill-rule:nonzero;stroke:none" />
      </g>
      <g
         transform="translate(338.6558,177.7002)"
         id="g3948">
        <path
           d="m 0,0 c 2.397,0.678 4.596,1.213 6.62,1.619 0.967,0.194 2.395,-4.429 3.285,-4.292 0.985,0.151 1.422,5.056 2.319,5.14 15.309,1.447 18.371,-6.488 26.558,-13.821 1.543,-1.38 4.141,-0.035 5.166,-3.043 1.024,-3.004 -0.941,-3.705 -0.941,-3.705 0,0 -26.432,-6.188 -38.344,-12.889 -12.445,-7.354 -25.675,-8.593 -27.607,-6.073 -1.668,2.173 -1.96,4.824 1.554,5.628 3.47,0.795 -2.177,16.499 10.425,26.206 1.479,1.138 7.856,-9.188 9.881,-8.248 C 0.61,-12.691 -2.135,-0.604 0,0 z"
           id="path3950"
           style="fill:none;stroke:#000000;stroke-width:3.13495469;stroke-linecap:butt;stroke-linejoin:miter;stroke-miterlimit:4;stroke-opacity:1;stroke-dasharray:none" />
      </g>
      <g
         transform="translate(331.5088,134.2832)"
         id="g3952">
        <path
           d="m 0,0 c 0.135,-0.754 -0.312,-1.467 -0.999,-1.59 -0.687,-0.123 -1.352,0.392 -1.487,1.145 -0.135,0.756 0.311,1.468 0.998,1.591 C -0.801,1.269 -0.135,0.755 0,0"
           id="path3954"
           style="fill:#e9ddaf;fill-opacity:1;fill-rule:nonzero;stroke:none" />
      </g>
      <g
         transform="translate(331.5088,134.2832)"
         id="g3956">
        <path
           d="m 0,0 c 0.135,-0.754 -0.312,-1.467 -0.999,-1.59 -0.687,-0.123 -1.352,0.392 -1.487,1.145 -0.135,0.756 0.311,1.468 0.998,1.591 C -0.801,1.269 -0.135,0.755 0,0 z"
           id="path3958"
           style="fill:none;stroke:#222b00;stroke-width:1.56747735;stroke-linecap:butt;stroke-linejoin:round;stroke-miterlimit:4;stroke-opacity:1;stroke-dasharray:none" />
      </g>
    </g>
    <g
       transform="matrix(0.78720076,0,0,-0.78720076,245.25683,434.80304)"
       id="g5712">
      <g
         transform="translate(74.6304,150.9863)"
         id="g3062">
        <path
           d="m 0,0 0,0 c 1.674,0 3.03,-0.895 3.03,-2 l 0,-10.395 c 0,-1.103 -1.356,-2 -3.03,-2 -1.674,0 -3.03,0.897 -3.03,2 l 0,10.395 c 0,1.105 1.356,2 3.03,2"
           id="path3064"
           style="fill:#c8ab37;fill-opacity:1;fill-rule:nonzero;stroke:none" />
      </g>
      <g
         transform="translate(74.6304,150.9863)"
         id="g3066">
        <path
           d="m 0,0 0,0 c 1.674,0 3.03,-0.895 3.03,-2 l 0,-10.395 c 0,-1.103 -1.356,-2 -3.03,-2 -1.674,0 -3.03,0.897 -3.03,2 l 0,10.395 c 0,1.105 1.356,2 3.03,2 z"
           id="path3068"
           style="fill:none;stroke:#222b00;stroke-width:1.58790493;stroke-linecap:butt;stroke-linejoin:round;stroke-miterlimit:4;stroke-opacity:1;stroke-dasharray:none" />
      </g>
      <g
         transform="translate(90.5723,181.7461)"
         id="g3070"
         style="stroke-width:1;stroke-miterlimit:4;stroke-dasharray:none">
        <path
           d="m 0,0 c 27.327,2.705 27.904,-7.42 36.178,-18.004 1.275,-1.631 4.069,-0.764 4.55,-3.906 0.478,-3.137 -1.581,-3.481 -1.581,-3.481 0,0 -27.107,-1.437 -40.013,-5.937 -13.546,-5.047 -26.787,-3.938 -28.245,-1.117 -1.259,2.433 -1.08,5.093 2.521,5.267 C -22.269,-26.969 -27.328,-2.705 0,0"
           id="path3072"
           style="fill:#8a916f;fill-opacity:1;fill-rule:nonzero;stroke:none" />
      </g>
      <g
         transform="translate(90.5723,181.7461)"
         id="g3074">
        <path
           d="m 0,0 c 27.327,2.705 27.904,-7.42 36.178,-18.004 1.275,-1.631 4.069,-0.764 4.55,-3.906 0.478,-3.137 -1.581,-3.481 -1.581,-3.481 0,0 -27.107,-1.437 -40.013,-5.937 -13.546,-5.047 -26.787,-3.938 -28.245,-1.117 -1.259,2.433 -1.08,5.093 2.521,5.267 C -22.269,-26.969 -27.328,-2.705 0,0 z"
           id="path3076"
           style="fill:none;stroke:#000000;stroke-width:3.17580986;stroke-linecap:butt;stroke-linejoin:miter;stroke-miterlimit:4;stroke-opacity:1;stroke-dasharray:none" />
      </g>
      <g
         transform="translate(75.8931,140.2656)"
         id="g3078">
        <path
           d="m 0,0 c 0,-0.766 -0.565,-1.389 -1.263,-1.389 -0.698,0 -1.262,0.623 -1.262,1.389 0,0.768 0.564,1.391 1.262,1.391 C -0.565,1.391 0,0.768 0,0"
           id="path3080"
           style="fill:#e9ddaf;fill-opacity:1;fill-rule:nonzero;stroke:none" />
      </g>
      <g
         transform="translate(75.8931,140.2656)"
         id="g3082">
        <path
           d="m 0,0 c 0,-0.766 -0.565,-1.389 -1.263,-1.389 -0.698,0 -1.262,0.623 -1.262,1.389 0,0.768 0.564,1.391 1.262,1.391 C -0.565,1.391 0,0.768 0,0 z"
           id="path3084"
           style="fill:none;stroke:#222b00;stroke-width:1.58790493;stroke-linecap:butt;stroke-linejoin:round;stroke-miterlimit:4;stroke-opacity:1;stroke-dasharray:none" />
      </g>
    </g>
  </g>
</svg>
